<svg id="Capa_1" enable-background="new 0 0 512 512" height="512" viewBox="0 0 512 512" width="512" xmlns="http://www.w3.org/2000/svg" xmlns:xlink="http://www.w3.org/1999/xlink"><linearGradient id="SVGID_1_" gradientUnits="userSpaceOnUse" x1="256" x2="256" y1="481" y2="46"><stop offset="0" stop-color="#a93aff"/><stop offset="1" stop-color="#ff81ff"/></linearGradient><linearGradient id="SVGID_2_" gradientUnits="userSpaceOnUse" x1="256" x2="256" y1="391" y2="31"><stop offset="0" stop-color="#ffbef9"/><stop offset="1" stop-color="#fff1ff"/></linearGradient><g><g><g><path d="m505.32 183.52-91-60h-8.32v-77.52h-300v77.52h-8.32l-91 60c-4.16 2.783-6.68 7.47-6.68 12.48v270c0 8.291 6.709 15 15 15h482c8.291 0 15-6.709 15-15v-270c0-5.01-2.52-9.697-6.68-12.48z" fill="url(#SVGID_1_)"/></g></g><g><g><path d="m448.012 232.006c-5.01-6.68-14.385-7.939-21.006-3.003l-6.006 4.504v-187.507c0-8.291-6.709-15-15-15h-300c-8.291 0-15 6.709-15 15v187.507l-6.006-4.504c-6.592-4.922-15.996-3.647-21.006 3.003-4.951 6.621-3.604 16.025 3.018 20.991l180 135c2.666 2.007 5.83 3.003 8.994 3.003s6.328-.996 8.994-3.003l180-135c6.621-4.966 7.969-14.37 3.018-20.991zm-132.012 8.994h-120c-8.291 0-15-6.709-15-15s6.709-15 15-15h120c8.291 0 15 6.709 15 15s-6.709 15-15 15zm0-60h-120c-8.291 0-15-6.709-15-15s6.709-15 15-15h120c8.291 0 15 6.709 15 15s-6.709 15-15 15zm0-60h-120c-8.291 0-15-6.709-15-15s6.709-15 15-15h120c8.291 0 15 6.709 15 15s-6.709 15-15 15z" fill="url(#SVGID_2_)"/></g></g></g></svg>