<?xml version="1.0"?>
<svg xmlns="http://www.w3.org/2000/svg" xmlns:xlink="http://www.w3.org/1999/xlink" xmlns:svgjs="http://svgjs.com/svgjs" version="1.1" width="512" height="512" x="0" y="0" viewBox="0 0 511.999 511.999" style="enable-background:new 0 0 512 512" xml:space="preserve" class=""><g>
<g xmlns="http://www.w3.org/2000/svg">
	<path style="" d="M384.939,242.856h-4.356c-16.851,52.737-66.262,90.941-124.582,90.941h43.708h39.537h10.917   c22.408,0,42.965,8.33,58.727,22.047V233.595C402.665,239.32,394.214,242.856,384.939,242.856z" fill="#f5d94b" data-original="#447de2" class=""/>
	<path style="" d="M256,333.795c58.321,0,107.732-38.202,124.582-90.941c4.013-12.56,6.188-25.94,6.188-39.829   c0-8.925-0.898-17.64-2.603-26.063h-22.944v25.583c0,14.071-11.512,25.582-25.582,25.582h-16.287   c-14.071,0-25.583-11.512-25.583-25.582h-75.543c0,14.071-11.512,25.582-25.582,25.582H176.36   c-14.071,0-25.582-11.512-25.582-25.582v-25.583h-22.944c-1.704,8.423-2.603,17.138-2.603,26.063   c0,13.889,2.174,27.27,6.188,39.829C148.271,295.593,197.681,333.795,256,333.795z" fill="#fbdeb6" data-original="#ffddae" class=""/>
	<path style="" d="M256,333.795c-58.32,0-107.73-38.202-124.581-90.941h-4.355c-12.443,0-23.404-6.358-29.488-15.835   v134.065c16.322-16.808,39.128-27.29,64.263-27.29h10.917h39.537L256,333.795L256,333.795z" fill="#f5d94b" data-original="#447de2" class=""/>
	<path style="" d="M131.419,242.856c-4.013-12.56-6.188-25.94-6.188-39.829c0-8.925,0.898-17.64,2.603-26.063h-0.77   c-12.442,0-23.404,6.358-29.488,15.835c-3.207,4.995-5.059,10.857-5.059,17.111c0,6.254,1.852,12.116,5.059,17.111   c6.084,9.477,17.046,15.835,29.488,15.835H131.419z" fill="#fbdeb6" data-original="#ffddae" class=""/>
	<path style="" d="M150.777,202.546c0,14.071,11.512,25.582,25.582,25.582h16.287   c14.071,0,25.582-11.512,25.582-25.582v-25.583h-12.063h-55.39v25.583H150.777z" fill="#e4e6ee" data-original="#e4e6ee" class=""/>
	<path style="" d="M218.229,176.963v25.583h75.543v-25.583h13.185c-27.717,0-50.396-22.678-50.396-50.395   c0,27.718-22.678,50.395-50.395,50.395H218.229z" fill="#fbdeb6" data-original="#ffddae" class=""/>
	<path style="" d="M293.772,176.963v25.583c0,14.071,11.512,25.582,25.583,25.582h16.287   c14.071,0,25.582-11.512,25.582-25.582v-25.583h-54.268H293.772z" fill="#e4e6ee" data-original="#e4e6ee" class=""/>
	<path style="" d="M386.771,203.026c0,13.889-2.174,27.27-6.188,39.829h4.356c9.276,0,17.729-3.533,23.951-9.259   c6.523-6.003,10.595-14.413,10.595-23.688s-4.072-17.685-10.596-23.687c-6.223-5.726-14.675-9.259-23.951-9.259h-0.771   C385.872,185.387,386.771,194.102,386.771,203.026z" fill="#fbdeb6" data-original="#ffddae" class=""/>
	<path style="" d="M361.224,176.963h22.944h0.771c9.276,0,17.729,3.533,23.95,9.26v-20.611   C408.888,80.001,338.843,9.956,253.233,9.956c-85.611,0-155.656,70.045-155.656,155.655v27.187   c6.084-9.477,17.045-15.835,29.488-15.835h0.77h22.944h55.39c27.718,0,50.395-22.678,50.395-50.395   c0,27.718,22.678,50.395,50.396,50.395L361.224,176.963L361.224,176.963z" fill="#f5d94b" data-original="#447de2" class=""/>
	<path style="" d="M299.709,333.795H256h-43.707c0,24.134,19.573,43.707,43.708,43.707   C280.136,377.503,299.709,357.931,299.709,333.795z" fill="#fbdeb6" data-original="#ffddae" class=""/>
	<g>
		<path style="" d="M299.709,333.795c0,24.134-19.573,43.707-43.707,43.707h64.875    c14.154,0,25.732-11.579,25.732-25.733c0-6.977-2.816-13.327-7.365-17.975h-39.536V333.795z" fill="#e4e6ee" data-original="#e4e6ee" class=""/>
		<path style="" d="M256,377.503c-24.136,0-43.708-19.573-43.708-43.707h-39.537    c-4.549,4.647-7.365,10.997-7.365,17.975c0,14.153,11.58,25.732,25.732,25.732H256z" fill="#e4e6ee" data-original="#e4e6ee" class=""/>
	</g>
	<path style="" d="M165.392,351.77L165.392,351.77L165.392,351.77z M346.609,351.771L346.609,351.771L346.609,351.771z    M256,377.503h-64.876c-14.153,0-25.732-11.579-25.732-25.732c0-6.977,2.816-13.327,7.365-17.975H161.84   c-25.135,0-47.941,10.482-64.263,27.29c-15.703,16.17-25.404,38.195-25.404,62.378v78.58H439.83v-78.58   c0-26.91-12.013-51.15-30.941-67.622c-15.761-13.716-36.319-22.046-58.727-22.046h-10.918c4.549,4.647,7.365,10.997,7.365,17.975   c0,14.153-11.58,25.732-25.732,25.732H256z" fill="#421115" data-original="#f74f5c" class=""/>
</g>
<path xmlns="http://www.w3.org/2000/svg" d="M418.844,351.364V237.652c6.601-7.486,10.597-17.17,10.597-27.743s-3.995-20.257-10.597-27.743v-16.555  c0-44.065-17.274-85.605-48.64-116.972C338.838,17.275,297.297,0,253.232,0c-44.065,0-85.605,17.275-116.972,48.639  c-31.366,31.367-48.64,72.907-48.64,116.972v24.466c-3.225,5.936-5.06,12.679-5.06,19.832s1.835,13.896,5.06,19.832v127.344  c-15.788,17.634-25.405,40.903-25.405,66.378v78.58c0,5.498,4.457,9.956,9.956,9.956h367.658c5.499,0,9.956-4.458,9.956-9.956  v-78.58C449.786,395.131,437.896,369.522,418.844,351.364z M350.161,323.839h-22.008c3.972-2.383,7.858-4.949,11.623-7.743  c21.934-16.28,38.389-38.079,47.911-63.367c0.161-0.009,0.32-0.033,0.481-0.044c0.676-0.047,1.348-0.107,2.016-0.183  c0.256-0.029,0.512-0.061,0.767-0.094c0.693-0.091,1.38-0.197,2.062-0.319c0.18-0.032,0.361-0.06,0.541-0.094  c0.889-0.169,1.769-0.359,2.639-0.578c0.002-0.001,0.004-0.001,0.006-0.002c0.853-0.215,1.695-0.461,2.528-0.724  c0.068-0.021,0.138-0.037,0.206-0.059v85.988C384.508,328.489,367.868,323.839,350.161,323.839z M336.653,351.771  c0,8.699-7.077,15.776-15.776,15.776h-23.195c5.493-6.77,9.366-14.898,11.042-23.795h25.695  C335.864,346.167,336.653,348.915,336.653,351.771z M118.124,231.283c-4.988-1.851-9.321-5.206-12.168-9.641  c-0.066-0.102-0.138-0.196-0.207-0.295c-2.078-3.371-3.275-7.274-3.275-11.437c0-4.172,1.207-8.079,3.291-11.455  c0.166-0.24,0.32-0.489,0.464-0.744c2.366-3.518,5.722-6.399,9.7-8.295c-0.436,4.519-0.654,9.067-0.654,13.611  C115.275,212.563,116.231,222.019,118.124,231.283z M206.166,186.919c0.706,0,1.406-0.029,2.107-0.054v15.68  c0,8.617-7.01,15.627-15.626,15.627H176.36c-8.617,0-15.627-7.01-15.627-15.627v-15.626L206.166,186.919L206.166,186.919z   M256.562,159.719c6.597,9.995,16.077,17.922,27.254,22.579v10.291h-55.631v-9.848C239.848,178.155,249.746,170.045,256.562,159.719  z M303.728,186.831c1.069,0.057,2.146,0.089,3.229,0.089h44.311v15.626c0,8.617-7.01,15.627-15.626,15.627h-16.287  c-8.616,0-15.626-7.01-15.626-15.627L303.728,186.831L303.728,186.831z M176.36,238.086h16.287c16.14,0,29.793-10.819,34.109-25.583  h8.527v27.286c0,11.425,9.294,20.719,20.719,20.719h10.763c5.499,0,9.956-4.458,9.956-9.956c0-5.498-4.457-9.956-9.956-9.956  h-10.763c-0.422,0-0.806-0.384-0.806-0.805v-27.286h30.05c4.317,14.764,17.969,25.583,34.109,25.583h16.287  c19.597,0,35.538-15.944,35.538-35.539v-15.626h4.558c0.71,5.327,1.076,10.717,1.076,16.107c0,12.55-1.923,24.931-5.715,36.799  c0,0-0.001,0.004-0.001,0.006c-16.059,50.248-62.311,84.009-115.096,84.009s-99.04-33.763-115.098-84.015  c-3.792-11.867-5.715-24.247-5.715-36.799c0-5.389,0.366-10.779,1.076-16.107h4.557v15.626  C140.821,222.142,156.763,238.086,176.36,238.086z M396.071,189.414c2.088,0.996,3.998,2.267,5.69,3.753  c0.27,0.277,0.555,0.54,0.855,0.784c4.275,4.139,6.913,9.765,6.913,15.959c0,6.319-2.752,12.04-7.18,16.2  c-0.065,0.057-0.137,0.101-0.201,0.159c-2.413,2.22-5.227,3.91-8.272,5.034c1.895-9.269,2.851-18.732,2.851-28.275  C396.726,198.481,396.507,193.934,396.071,189.414z M256,367.547c-15.146,0-27.992-10.03-32.251-23.795h64.503  C283.994,357.518,271.147,367.547,256,367.547z M118.095,251.935c0.029,0.006,0.058,0.01,0.086,0.015  c0.67,0.13,1.344,0.248,2.023,0.349c0.194,0.029,0.39,0.05,0.585,0.077c0.522,0.071,1.043,0.139,1.569,0.193  c0.301,0.031,0.605,0.05,0.908,0.075c0.349,0.029,0.697,0.066,1.048,0.087c9.522,25.287,25.976,47.086,47.91,63.366  c3.764,2.795,7.651,5.359,11.623,7.743h-22.008c-20.02,0-38.676,5.941-54.307,16.145v-91.507  C110.866,250.05,114.411,251.211,118.095,251.935z M177.582,343.751h25.696c1.677,8.897,5.55,17.025,11.042,23.795h-23.196  c-8.7,0-15.777-7.077-15.777-15.777C175.348,348.915,176.137,346.167,177.582,343.751z M253.233,19.912  c80.339,0,145.699,65.361,145.699,145.7v3.581c-4.404-1.41-9.106-2.185-13.994-2.185h-0.751c-0.007,0-0.013-0.001-0.019-0.001  h-77.211c-22.299,0-40.44-18.141-40.44-40.439c0-5.498-4.457-9.956-9.956-9.956c-5.499,0-9.956,4.458-9.956,9.956  c0,22.299-18.141,40.439-40.439,40.439h-78.333c-0.007,0-0.013,0.001-0.019,0.001h-0.75c-7.004,0-13.632,1.573-19.532,4.363v-5.76  C107.533,85.273,172.893,19.912,253.233,19.912z M429.873,492.088h-50.06v-57.22c0-5.499-4.457-9.956-9.956-9.956  s-9.956,4.457-9.956,9.956v55.708h-207.8v-55.708c0-5.499-4.457-9.956-9.956-9.956c-5.499,0-9.956,4.457-9.956,9.956v57.22h-50.06  v-68.624c0-21.252,8.376-40.573,21.98-54.878c0.468-0.408,0.897-0.857,1.282-1.344c13.222-13.275,31.085-21.908,50.915-23.276  c-0.568,2.538-0.87,5.15-0.87,7.806c0,19.679,16.01,35.689,35.69,35.689h54.92v37.365c0,5.498,4.457,9.956,9.956,9.956  c5.499,0,9.956-4.458,9.956-9.956v-37.365h54.92c19.679,0,35.689-16.01,35.689-35.69c0-2.655-0.302-5.268-0.87-7.805  c17.489,1.206,33.436,8.069,46.031,18.781c0.406,0.421,0.85,0.802,1.324,1.148c16.439,14.613,26.824,35.896,26.824,59.569  L429.873,492.088L429.873,492.088z" fill="#000000" data-original="#000000" style="" class=""/>
<path xmlns="http://www.w3.org/2000/svg" d="M256,448.083c-5.499,0-9.956,4.458-9.956,9.956v0.543c0,5.498,4.457,9.956,9.956,9.956c5.499,0,9.956-4.458,9.956-9.956  v-0.543C265.957,452.54,261.499,448.083,256,448.083z" fill="#000000" data-original="#000000" style="" class=""/>
<path xmlns="http://www.w3.org/2000/svg" d="M151.443,100.055c1.811,1.395,3.949,2.07,6.07,2.07c2.983,0,5.932-1.334,7.893-3.879  c18.352-23.815,45.794-39.406,75.288-42.774c5.463-0.624,9.386-5.558,8.762-11.021c-0.625-5.462-5.554-9.381-11.021-8.762  c-34.813,3.976-67.181,22.347-88.8,50.405C146.278,90.447,147.088,96.698,151.443,100.055z" fill="#000000" data-original="#000000" style="" class=""/>
<path xmlns="http://www.w3.org/2000/svg" d="M272.041,56.371l0.372,0.064c0.577,0.102,1.151,0.149,1.717,0.149c4.75,0,8.955-3.413,9.797-8.252  c0.942-5.417-2.686-10.572-8.103-11.514l-0.5-0.088c-5.421-0.901-10.554,2.755-11.461,8.178  C262.956,50.332,266.617,55.464,272.041,56.371z" fill="#000000" data-original="#000000" style="" class=""/>
<g xmlns="http://www.w3.org/2000/svg">
</g>
<g xmlns="http://www.w3.org/2000/svg">
</g>
<g xmlns="http://www.w3.org/2000/svg">
</g>
<g xmlns="http://www.w3.org/2000/svg">
</g>
<g xmlns="http://www.w3.org/2000/svg">
</g>
<g xmlns="http://www.w3.org/2000/svg">
</g>
<g xmlns="http://www.w3.org/2000/svg">
</g>
<g xmlns="http://www.w3.org/2000/svg">
</g>
<g xmlns="http://www.w3.org/2000/svg">
</g>
<g xmlns="http://www.w3.org/2000/svg">
</g>
<g xmlns="http://www.w3.org/2000/svg">
</g>
<g xmlns="http://www.w3.org/2000/svg">
</g>
<g xmlns="http://www.w3.org/2000/svg">
</g>
<g xmlns="http://www.w3.org/2000/svg">
</g>
<g xmlns="http://www.w3.org/2000/svg">
</g>
</g></svg>
